<svg xmlns="http://www.w3.org/2000/svg" viewBox="0 0 60 60"><defs><linearGradient id="pg" x1="0" y1="0" x2="0" y2="1"><stop offset="0" stop-color="#61E579"/><stop offset="1" stop-color="#12B23A"/></linearGradient></defs><rect width="60" height="60" rx="13.5" fill="url(#pg)"/><path d="M22.6 16.3c-1.5-1-3.5-.7-4.7.7l-2 2.4c-1 1.2-1.2 2.9-.6 4.4 3.8 8.6 10.6 15.4 19.2 19.2 1.5.6 3.2.4 4.4-.6l2.4-2c1.4-1.2 1.7-3.2.7-4.7l-2.6-4c-.8-1.3-2.5-1.8-3.9-1.2l-3.2 1.3c-3.8-2.1-6.4-4.7-8.5-8.5l1.3-3.2c.6-1.4.1-3.1-1.2-3.9l-1-.6z" fill="#fff"/></svg>
