<svg xmlns="http://www.w3.org/2000/svg" viewBox="0 0 48 48"><path fill="#36C5F0" d="M18 10a3.5 3.5 0 1 0-3.5 3.5H18zm0 0"/><path fill="#36C5F0" d="M18 19a3.5 3.5 0 0 1-3.5 3.5h-4A3.5 3.5 0 0 1 7 19a3.5 3.5 0 0 1 3.5-3.5h4A3.5 3.5 0 0 1 18 19z"/><path fill="#2EB67D" d="M38 19a3.5 3.5 0 1 0-3.5 3.5V19zm-9 0a3.5 3.5 0 0 1-3.5 3.5A3.5 3.5 0 0 1 22 19v-4a3.5 3.5 0 0 1 3.5-3.5A3.5 3.5 0 0 1 29 15z"/><path fill="#ECB22E" d="M29 38a3.5 3.5 0 1 0-3.5-3.5H29zm0-9a3.5 3.5 0 0 1 3.5-3.5h4A3.5 3.5 0 0 1 40 29a3.5 3.5 0 0 1-3.5 3.5h-4A3.5 3.5 0 0 1 29 29z"/><path fill="#E01E5A" d="M10 29a3.5 3.5 0 1 0 3.5 3.5V29zm9 0a3.5 3.5 0 0 1 3.5-3.5A3.5 3.5 0 0 1 26 29v4a3.5 3.5 0 0 1-3.5 3.5A3.5 3.5 0 0 1 19 33z"/></svg>
