<svg xmlns="http://www.w3.org/2000/svg" viewBox="0 0 48 48"><circle cx="24" cy="24" r="20" fill="#25D366"/><path fill="#fff" d="M24 12.5c-6.4 0-11.6 5.2-11.6 11.6 0 2 .5 4 1.5 5.7L12.4 35l5.4-1.4c1.6.9 3.5 1.4 5.4 1.4h.8c6.4-.3 11.4-5.5 11.4-11.9 0-6.4-5.2-11.6-11.4-11.6zm6.8 16.4c-.3.8-1.6 1.5-2.3 1.6-.6.1-1.3.1-2.1-.1-.5-.2-1.1-.4-1.9-.7-3.3-1.4-5.5-4.8-5.7-5-.2-.2-1.4-1.8-1.4-3.5s.9-2.5 1.2-2.8c.3-.3.7-.4.9-.4h.7c.2 0 .5-.1.8.6.3.7 1 2.4 1.1 2.6.1.2.1.4 0 .6-.1.2-.2.4-.3.5l-.5.6c-.2.2-.3.3-.1.6.2.3.9 1.5 2 2.4 1.4 1.2 2.5 1.6 2.8 1.8.3.1.5.1.7-.1.2-.2.8-.9 1-1.2.2-.3.4-.3.7-.2.3.1 1.9.9 2.2 1.1.3.2.5.2.6.3.1.3.1.9-.2 1.7z"/></svg>
